<svg xmlns="http://www.w3.org/2000/svg" xmlns:xlink="http://www.w3.org/1999/xlink" width="512pt" height="386pt" viewBox="0 0 511.61 386.24"><g id="graph0" class="graph" transform="scale(1 1) rotate(0) translate(4 382.2434)"><title>RBAC</title><polygon fill="#fff" stroke="transparent" points="-4 4 -4 -382.243 507.613 -382.243 507.613 4 -4 4"/><text x="251.807" y="-6.8" fill="#000" font-family="Helvetica,sans-Serif" font-size="14" font-weight="bold" text-anchor="middle">RBAC</text><g id="tenants" class="node"><title>tenants</title><path fill="#fff" stroke="#000" stroke-width="2" d="M130.4033,-339.5C130.4033,-339.5 171.4375,-339.5 171.4375,-339.5 177.4375,-339.5 183.4375,-345.5 183.4375,-351.5 183.4375,-351.5 183.4375,-363.5 183.4375,-363.5 183.4375,-369.5 177.4375,-375.5 171.4375,-375.5 171.4375,-375.5 130.4033,-375.5 130.4033,-375.5 124.4033,-375.5 118.4033,-369.5 118.4033,-363.5 118.4033,-363.5 118.4033,-351.5 118.4033,-351.5 118.4033,-345.5 124.4033,-339.5 130.4033,-339.5"/><text x="150.92" y="-353.3" fill="#000" font-family="Helvetica,sans-Serif" font-size="14" text-anchor="middle">Tenants</text></g><g id="edge1" class="edge"><title>tenants--tenants</title><path fill="none" stroke="#000" d="M183.4739,-364.2434C193.536,-364.1072 201.4375,-361.8594 201.4375,-357.5 201.4375,-353.1406 193.536,-350.8928 183.4739,-350.7566"/><text x="187.367" y="-353.557" fill="#000" font-family="Helvetica,sans-Serif" font-size="14" text-anchor="middle">1</text><text x="186.198" y="-367.043" fill="#000" font-family="Helvetica,sans-Serif" font-size="14" text-anchor="middle">*</text></g><g id="groups" class="node"><title>groups</title><path fill="#fff" stroke="#000" stroke-width="2" d="M161.9653,-265.5C161.9653,-265.5 199.8755,-265.5 199.8755,-265.5 205.8755,-265.5 211.8755,-271.5 211.8755,-277.5 211.8755,-277.5 211.8755,-289.5 211.8755,-289.5 211.8755,-295.5 205.8755,-301.5 199.8755,-301.5 199.8755,-301.5 161.9653,-301.5 161.9653,-301.5 155.9653,-301.5 149.9653,-295.5 149.9653,-289.5 149.9653,-289.5 149.9653,-277.5 149.9653,-277.5 149.9653,-271.5 155.9653,-265.5 161.9653,-265.5"/><text x="180.92" y="-279.3" fill="#000" font-family="Helvetica,sans-Serif" font-size="14" text-anchor="middle">Groups</text></g><g id="edge2" class="edge"><title>tenants--groups</title><path fill="none" stroke="#000" d="M158.3361,-339.2079C162.9863,-327.7375 168.9561,-313.012 173.59,-301.5817"/><text x="170.866" y="-304.382" fill="#000" font-family="Helvetica,sans-Serif" font-size="14" text-anchor="middle">*</text><text x="154.443" y="-328.008" fill="#000" font-family="Helvetica,sans-Serif" font-size="14" text-anchor="middle">1</text></g><g id="resources" class="node"><title>resources</title><path fill="#fff" stroke="#000" stroke-width="2" d="M12,-109.5C12,-109.5 125.8408,-109.5 125.8408,-109.5 131.8408,-109.5 137.8408,-115.5 137.8408,-121.5 137.8408,-121.5 137.8408,-141.5 137.8408,-141.5 137.8408,-147.5 131.8408,-153.5 125.8408,-153.5 125.8408,-153.5 12,-153.5 12,-153.5 6,-153.5 0,-147.5 0,-141.5 0,-141.5 0,-121.5 0,-121.5 0,-115.5 6,-109.5 12,-109.5"/><text x="41.459" y="-127.3" fill="#000" font-family="Helvetica,sans-Serif" font-size="14" text-anchor="middle">Resources</text><polyline fill="none" stroke="#000" stroke-width="2" points="82.917 -109.5 82.917 -153.5"/><text x="110.379" y="-138.3" fill="#000" font-family="Helvetica,sans-Serif" font-size="14" text-anchor="middle">owner</text><polyline fill="none" stroke="#000" stroke-width="2" points="82.917 -131.5 137.841 -131.5"/><text x="110.379" y="-116.3" fill="#000" font-family="Helvetica,sans-Serif" font-size="14" text-anchor="middle">tenant</text></g><g id="edge7" class="edge"><title>tenants:w--resources:se</title><path fill="none" stroke="#000" stroke-dasharray="5 2" d="M117.9204,-357.5C62.6304,-357.5 177.0164,-70.404 137.9204,-109.5"/></g><g id="users" class="node"><title>users</title><path fill="#fff" stroke="#000" stroke-width="2" d="M177.9204,-191.5C177.9204,-191.5 207.9204,-191.5 207.9204,-191.5 213.9204,-191.5 219.9204,-197.5 219.9204,-203.5 219.9204,-203.5 219.9204,-215.5 219.9204,-215.5 219.9204,-221.5 213.9204,-227.5 207.9204,-227.5 207.9204,-227.5 177.9204,-227.5 177.9204,-227.5 171.9204,-227.5 165.9204,-221.5 165.9204,-215.5 165.9204,-215.5 165.9204,-203.5 165.9204,-203.5 165.9204,-197.5 171.9204,-191.5 177.9204,-191.5"/><text x="192.7" y="-205.3" fill="#000" font-family="Helvetica,sans-Serif" font-size="14" text-anchor="middle">Users</text></g><g id="edge3" class="edge"><title>groups--users</title><path fill="none" stroke="#000" d="M183.8867,-265.2079C185.7468,-253.7375 188.1347,-239.012 189.9882,-227.5817"/><text x="192.712" y="-230.382" fill="#000" font-family="Helvetica,sans-Serif" font-size="14" text-anchor="middle">*</text><text x="181.163" y="-254.008" fill="#000" font-family="Helvetica,sans-Serif" font-size="14" text-anchor="middle">*</text></g><g id="roles" class="node"><title>roles</title><path fill="#fff" stroke="#000" stroke-width="2" d="M249.9204,-191.5C249.9204,-191.5 279.9204,-191.5 279.9204,-191.5 285.9204,-191.5 291.9204,-197.5 291.9204,-203.5 291.9204,-203.5 291.9204,-215.5 291.9204,-215.5 291.9204,-221.5 285.9204,-227.5 279.9204,-227.5 279.9204,-227.5 249.9204,-227.5 249.9204,-227.5 243.9204,-227.5 237.9204,-221.5 237.9204,-215.5 237.9204,-215.5 237.9204,-203.5 237.9204,-203.5 237.9204,-197.5 243.9204,-191.5 249.9204,-191.5"/><text x="264.817" y="-205.3" fill="#000" font-family="Helvetica,sans-Serif" font-size="14" text-anchor="middle">Roles</text></g><g id="edge4" class="edge"><title>groups--roles</title><path fill="none" stroke="#000" d="M201.6845,-265.2079C214.7049,-253.7375 231.4204,-239.012 244.3952,-227.5817"/><text x="240.502" y="-230.382" fill="#000" font-family="Helvetica,sans-Serif" font-size="14" text-anchor="middle">1</text><text x="198.96" y="-254.008" fill="#000" font-family="Helvetica,sans-Serif" font-size="14" text-anchor="middle">*</text></g><g id="edge9" class="edge"><title>groups:w--resources:ne</title><path fill="none" stroke="#000" stroke-dasharray="5 2" d="M149.9204,-283.5C91.897,-283.5 178.9492,-194.5287 137.9204,-153.5"/></g><g id="edge8" class="edge"><title>users:w--resources:ne</title><path fill="none" stroke="#000" stroke-dasharray="5 2" d="M165.9204,-209.5C147.9699,-209.5 159.4715,-187.7829 150.9204,-172 146.1332,-163.1642 145.0263,-160.6059 137.9204,-153.5"/></g><g id="entitlements" class="node"><title>entitlements</title><path fill="#fff" stroke="#000" stroke-width="2" d="M172.0898,-109.5C172.0898,-109.5 349.751,-109.5 349.751,-109.5 355.751,-109.5 361.751,-115.5 361.751,-121.5 361.751,-121.5 361.751,-141.5 361.751,-141.5 361.751,-147.5 355.751,-153.5 349.751,-153.5 349.751,-153.5 172.0898,-153.5 172.0898,-153.5 166.0898,-153.5 160.0898,-147.5 160.0898,-141.5 160.0898,-141.5 160.0898,-121.5 160.0898,-121.5 160.0898,-115.5 166.0898,-109.5 172.0898,-109.5"/><text x="206.607" y="-127.3" fill="#000" font-family="Helvetica,sans-Serif" font-size="14" text-anchor="middle">Entitlements</text><polyline fill="none" stroke="#000" stroke-width="2" points="253.124 -109.5 253.124 -153.5"/><text x="307.438" y="-138.3" fill="#000" font-family="Helvetica,sans-Serif" font-size="14" text-anchor="middle">managed_tags</text><polyline fill="none" stroke="#000" stroke-width="2" points="253.124 -131.5 361.751 -131.5"/><text x="307.438" y="-116.3" fill="#000" font-family="Helvetica,sans-Serif" font-size="14" text-anchor="middle">belongs_to</text></g><g id="edge6" class="edge"><title>roles--entitlements</title><path fill="none" stroke="#000" d="M263.9927,-191.4092C263.4157,-180.1582 262.6697,-165.6111 262.0573,-153.6691"/><text x="264.781" y="-156.469" fill="#000" font-family="Helvetica,sans-Serif" font-size="14" text-anchor="middle">*</text><text x="260.1" y="-180.209" fill="#000" font-family="Helvetica,sans-Serif" font-size="14" text-anchor="middle">1</text></g><g id="product_features" class="node"><title>product_features</title><path fill="#fff" stroke="#000" stroke-width="2" d="M392.2275,-113.5C392.2275,-113.5 491.6133,-113.5 491.6133,-113.5 497.6133,-113.5 503.6133,-119.5 503.6133,-125.5 503.6133,-125.5 503.6133,-137.5 503.6133,-137.5 503.6133,-143.5 497.6133,-149.5 491.6133,-149.5 491.6133,-149.5 392.2275,-149.5 392.2275,-149.5 386.2275,-149.5 380.2275,-143.5 380.2275,-137.5 380.2275,-137.5 380.2275,-125.5 380.2275,-125.5 380.2275,-119.5 386.2275,-113.5 392.2275,-113.5"/><text x="441.92" y="-127.3" fill="#000" font-family="Helvetica,sans-Serif" font-size="14" text-anchor="middle">Product Features</text></g><g id="edge5" class="edge"><title>roles--product_features</title><path fill="none" stroke="#000" d="M292.1888,-197.4834C321.1835,-184.7061 367.3775,-164.3494 400.7942,-149.6234"/><text x="398.07" y="-152.423" fill="#000" font-family="Helvetica,sans-Serif" font-size="14" text-anchor="middle">*</text><text x="294.913" y="-200.283" fill="#000" font-family="Helvetica,sans-Serif" font-size="14" text-anchor="middle">*</text></g><g id="child_resources" class="node"><title>child_resources</title><path fill="#fff" stroke="#000" stroke-width="2" d="M21.5654,-22.5C21.5654,-22.5 116.2754,-22.5 116.2754,-22.5 122.2754,-22.5 128.2754,-28.5 128.2754,-34.5 128.2754,-34.5 128.2754,-46.5 128.2754,-46.5 128.2754,-52.5 122.2754,-58.5 116.2754,-58.5 116.2754,-58.5 21.5654,-58.5 21.5654,-58.5 15.5654,-58.5 9.5654,-52.5 9.5654,-46.5 9.5654,-46.5 9.5654,-34.5 9.5654,-34.5 9.5654,-28.5 15.5654,-22.5 21.5654,-22.5"/><text x="68.92" y="-36.3" fill="#000" font-family="Helvetica,sans-Serif" font-size="14" text-anchor="middle">Child Resources</text></g><g id="edge10" class="edge"><title>resources--child_resources</title><path fill="none" stroke="#000" d="M68.9204,-109.4714C68.9204,-93.9015 68.9204,-73.2821 68.9204,-58.6556"/><text x="144.413" y="-79.8" fill="#000" font-family="Helvetica,sans-Serif" font-size="14" text-anchor="middle">match_via_descendants</text></g></g></svg>